<mxfile host="app.diagrams.net" modified="2022-08-09T07:43:01.237Z" agent="5.0 (Windows NT 10.0; Win64; x64) AppleWebKit/537.36 (KHTML, like Gecko) Chrome/103.0.0.0 Safari/537.36" etag="rN6BsHSdeRuWTzz1p2Z0" version="20.2.3" type="github">
  <diagram id="jyd061q0N29AtwrCHNUj" name="Page-1">
    <mxGraphModel dx="1209" dy="629" grid="0" gridSize="10" guides="1" tooltips="1" connect="1" arrows="1" fold="1" page="1" pageScale="1" pageWidth="827" pageHeight="1169" math="0" shadow="0">
      <root>
        <mxCell id="0" />
        <mxCell id="1" parent="0" />
      </root>
    </mxGraphModel>
  </diagram>
</mxfile>
